<svg width="70" height="70" viewBox="0 0 70 70" fill="none" xmlns="http://www.w3.org/2000/svg">
<circle r="35" transform="matrix(-1 0 0 1 35 35)" fill="#1D1E22"/>
<path fill-rule="evenodd" clip-rule="evenodd" d="M21.875 35C21.875 34.7514 21.9738 34.5129 22.1496 34.3371C22.3254 34.1613 22.5639 34.0625 22.8125 34.0625H44.9244L39.0237 28.1638C38.8477 27.9877 38.7488 27.749 38.7488 27.5C38.7488 27.2511 38.8477 27.0123 39.0237 26.8363C39.1998 26.6602 39.4385 26.5613 39.6875 26.5613C39.9365 26.5613 40.1752 26.6602 40.3513 26.8363L47.8513 34.3363C47.9386 34.4234 48.0078 34.5268 48.0551 34.6407C48.1023 34.7546 48.1267 34.8767 48.1267 35C48.1267 35.1233 48.1023 35.2454 48.0551 35.3593C48.0078 35.4732 47.9386 35.5767 47.8513 35.6638L40.3513 43.1638C40.1752 43.3398 39.9365 43.4387 39.6875 43.4387C39.4385 43.4387 39.1998 43.3398 39.0237 43.1638C38.8477 42.9877 38.7488 42.749 38.7488 42.5C38.7488 42.2511 38.8477 42.0123 39.0237 41.8363L44.9244 35.9375H22.8125C22.5639 35.9375 22.3254 35.8388 22.1496 35.6629C21.9738 35.4871 21.875 35.2487 21.875 35V35Z" fill="white"/>
</svg>
