<svg width="70" height="70" viewBox="0 0 70 70" fill="none" xmlns="http://www.w3.org/2000/svg">
<circle cx="35" cy="35" r="35" fill="#191F2E"/>
<path fill-rule="evenodd" clip-rule="evenodd" d="M48.125 35C48.125 34.7514 48.0262 34.5129 47.8504 34.3371C47.6746 34.1613 47.4361 34.0625 47.1875 34.0625H25.0756L30.9762 28.1638C31.1523 27.9877 31.2512 27.749 31.2512 27.5C31.2512 27.2511 31.1523 27.0123 30.9762 26.8363C30.8002 26.6602 30.5615 26.5613 30.3125 26.5613C30.0635 26.5613 29.8248 26.6602 29.6488 26.8363L22.1488 34.3363C22.0614 34.4234 21.9922 34.5268 21.9449 34.6407C21.8977 34.7546 21.8733 34.8767 21.8733 35C21.8733 35.1233 21.8977 35.2454 21.9449 35.3593C21.9922 35.4732 22.0614 35.5767 22.1488 35.6638L29.6488 43.1638C29.8248 43.3398 30.0635 43.4387 30.3125 43.4387C30.5615 43.4387 30.8002 43.3398 30.9762 43.1638C31.1523 42.9877 31.2512 42.749 31.2512 42.5C31.2512 42.2511 31.1523 42.0123 30.9762 41.8363L25.0756 35.9375H47.1875C47.4361 35.9375 47.6746 35.8388 47.8504 35.6629C48.0262 35.4871 48.125 35.2487 48.125 35Z" fill="white"/>
</svg>
